<svg width="23" height="33" viewBox="0 0 23 33" fill="none" xmlns="http://www.w3.org/2000/svg">
<path d="M12.5469 1.5C12.5469 0.671573 11.8753 -3.62117e-08 11.0469 0C10.2184 3.62117e-08 9.54687 0.671573 9.54688 1.5L11.0469 1.5L12.5469 1.5ZM9.98622 32.5607C10.572 33.1464 11.5218 33.1464 12.1075 32.5607L21.6535 23.0147C22.2393 22.4289 22.2393 21.4792 21.6535 20.8934C21.0677 20.3076 20.1179 20.3076 19.5322 20.8934L11.0469 29.3787L2.56159 20.8934C1.97581 20.3076 1.02606 20.3076 0.440274 20.8934C-0.145512 21.4792 -0.145512 22.4289 0.440274 23.0147L9.98622 32.5607ZM11.0469 1.5L9.54688 1.5L9.54688 31.5L11.0469 31.5L12.5469 31.5L12.5469 1.5L11.0469 1.5Z" fill="#532822"/>
</svg>
