<?xml version="1.0" encoding="UTF-8"?><svg id="Layer_1" xmlns="http://www.w3.org/2000/svg" viewBox="0 0 256 213.67"><path d="M256,0h-43.99l-90.84,97.26V0h-38.9C73.13,0,64.08,1.19,55.13,3.57c-8.95,2.38-16.95,6.05-24,11-7.05,4.95-12.71,11.19-17,18.71-4.28,7.53-6.43,16.43-6.43,26.71,0,5.33.71,10.57,2.14,15.71,1.43,5.14,3.86,10,7.28,14.57,3.43,4.57,8.04,8.71,13.85,12.43,5.81,3.71,13.09,6.71,21.85,9,12.69,3.43,23.55,6.28,32.61,8.55v64.27c-6.5-.13-12.56-.93-18.19-2.4-6.19-1.62-11.67-4.19-16.43-7.71-4.76-3.52-8.48-8.04-11.14-13.57-2.67-5.52-4-12.19-4-20H0c.19,12.57,2.57,23.47,7.14,32.71,4.57,9.24,10.66,16.81,18.28,22.71,7.61,5.91,16.57,10.28,26.85,13.14,10.28,2.86,21.23,4.28,32.85,4.28.11,0,.22-.03.33-.06v.06h35.71v-69.31l27.77-29.72,62.5,99.03h44.56l-80.5-127.47L256,0ZM85.46,86.78c-3.09-.83-6.01-1.62-8.76-2.37-5.24-1.43-8.24-2.24-9-2.43-7.24-2.09-13.1-5.19-17.57-9.28-4.48-4.09-6.71-9.76-6.71-17,0-5.14,1.19-9.43,3.57-12.85,2.38-3.43,5.38-6.14,9-8.14,3.62-2,7.61-3.43,12-4.28,4.38-.86,8.66-1.29,12.85-1.29h4.62v57.64Z"/><path d="M193.47,89.57c0,9.88,8.01,17.88,17.88,17.88s17.88-8.01,17.88-17.88-8.01-17.88-17.88-17.88-17.88,8.01-17.88,17.88Z"/></svg>